<?xml version="1.0" encoding="UTF-8"?> <svg xmlns="http://www.w3.org/2000/svg" width="556" height="36" viewBox="0 0 556 36" fill="none"><path d="M0.835938 16.5H214.836V19.5L0.835938 16.5Z" fill="#B99C60"></path><path opacity="0.992" fill-rule="evenodd" clip-rule="evenodd" d="M276.469 0C277.331 0 278.193 0 279.055 0C279.055 0.696503 279.055 1.39301 279.055 2.08951C279.979 2.08951 280.903 2.08951 281.826 2.08951C281.826 2.93264 281.826 3.77578 281.826 4.61891C280.903 4.61891 279.979 4.61891 279.055 4.61891C279.049 5.20555 279.055 5.79208 279.074 6.3785C283.603 10.4706 288.11 14.5888 292.597 18.7323C296.814 15.6119 301.019 12.4777 305.215 9.32947C306.405 8.45382 307.606 7.59236 308.817 6.74508C308.739 16.4595 308.745 26.1738 308.836 35.8882C299.888 35.9722 290.941 36.0088 281.993 35.9982C270.274 35.9762 258.555 35.9641 246.836 35.9615C246.844 28.2146 246.85 20.4677 246.854 12.7203C246.88 10.7184 246.935 8.72678 247.021 6.74508C252.331 10.7753 257.657 14.7831 263.001 18.7689C266.473 15.4954 269.989 12.2753 273.55 9.10953C274.546 8.20649 275.531 7.29004 276.506 6.36017C276.469 5.78259 276.457 5.20218 276.469 4.61891C275.594 4.61891 274.72 4.61891 273.845 4.61891C273.845 3.77578 273.845 2.93264 273.845 2.08951C274.72 2.08951 275.594 2.08951 276.469 2.08951C276.469 1.39301 276.469 0.696503 276.469 0ZM303.7 16.936C303.636 21.5791 303.605 26.2226 303.608 30.8661C286.4 30.8767 269.188 30.8646 251.972 30.8294C251.964 26.2347 251.983 21.6403 252.027 17.046C253.712 18.2396 255.381 19.4552 257.034 20.6935C259.089 22.2921 261.164 23.8626 263.26 25.404C268.101 20.9798 272.954 16.5687 277.817 12.1705C282.645 16.5628 287.467 20.9618 292.283 25.3674C295.397 23.1518 298.463 20.8731 301.483 18.5306C302.218 17.991 302.957 17.4595 303.7 16.936Z" fill="#B99C60"></path><path d="M340.836 16.5H554.836H555.164L340.836 19.5V16.5Z" fill="#B99C60"></path></svg> 