<svg preserveAspectRatio="xMidYMid meet" overflow="visible" style="display: block;" viewBox="0 0 180.748 19.7455" fill="none" xmlns="http://www.w3.org/2000/svg">
<g id="&#208;&#161;&#208;&#187;&#208;&#190;&#208;&#185; &#208;&#187;&#208;&#190;&#208;&#179;&#208;&#190;&#209;&#130;&#208;&#184;&#208;&#191;&#208;&#176;">
<path id="Vector" d="M165.891 14.7091C172.222 14.7091 174.764 13.5727 174.764 10.1273V9.52727C174.764 6.10909 172.259 4.97273 165.891 4.97273C159.524 4.97273 156.992 6.10909 156.992 9.52727V10.1273C156.992 13.5727 159.533 14.7091 165.891 14.7091ZM165.891 19.7182C155.453 19.7455 151.008 16.7 151.008 10.5V9.13635C151.008 3.01817 155.453 0.0272727 165.891 0C176.303 0.0272727 180.748 3.01817 180.748 9.13635V10.5C180.748 16.7 176.303 19.7455 165.891 19.7182ZM135.422 19.7182C125.047 19.7182 122.761 17.0182 122.761 13.2909V13.0364H128.691V13.2636C128.691 14.8 130.23 15.5727 135.422 15.5727C141.07 15.5727 142.491 15.0636 142.491 13.7273V13.6454C142.463 12.7364 141.753 12.2545 139.84 12.1364L130.713 11.7364C126.013 11.5091 123.016 9.99999 123.016 6.12726V6.07272C123.043 2.2909 125.758 0.0727289 135.158 0.0727289C144.558 0.0727289 147.473 2.60909 147.473 6.30909V6.59091H141.543V6.36364C141.543 4.93636 139.977 4.22727 134.958 4.22727C129.939 4.22727 128.773 4.79999 128.745 5.84545V5.87272C128.745 6.89999 129.52 7.29999 131.487 7.40909L140.951 7.86363C146.08 8.11818 148.193 9.79999 148.22 13.2454V13.3273C148.193 17.5636 145.342 19.7273 135.422 19.7273V19.7182ZM106.547 19.7455C98.103 19.7455 93.9129 16.6454 93.9129 8.3909V0.427274H99.6697V8.93636C99.6697 13.4364 102.093 14.8 106.538 14.8C110.983 14.8 113.406 13.4364 113.406 8.93636V0.427274H119.19V8.3909C119.19 16.6454 114.973 19.7182 106.529 19.7455H106.547ZM90.5517 0.427274V5.35454H75.358V8.85454H88.903V13.3545H75.358V19.3H69.5739V0.43636H90.5608L90.5517 0.427274ZM63.2978 19.2909H57.5137V0.427274H63.2978V19.2909ZM40.48 5.54545L36.4903 12.2636H44.4424L40.48 5.54545ZM54.7901 19.2909H48.6051L46.7196 16.1364H34.204L32.3184 19.2909H26.1335L37.8566 0.400002H43.0487L54.7992 19.2909H54.7901ZM25.4048 19.2909H17.817L10.9125 11.2091L5.78416 15.1091V19.2909H0V0.427274H5.78416V9.16364L17.1065 0.427274H25.1497L15.4851 7.77272L25.4048 19.3V19.2909Z" fill="var(--fill-0, #FFC387)"/>
</g>
</svg>
