<svg preserveAspectRatio="xMidYMid meet" overflow="visible" style="display: block;" viewBox="0 0 15 10.8333" fill="none" xmlns="http://www.w3.org/2000/svg">
<g id="&#208;&#152;&#208;&#186;&#208;&#190;&#208;&#189;&#208;&#186;&#208;&#176;">
<path id="Vector" d="M14.375 6.04172H0.625C0.28 6.04172 0 5.76172 0 5.41672C0 5.07172 0.28 4.79172 0.625 4.79172H14.375C14.72 4.79172 15 5.07172 15 5.41672C15 5.76172 14.72 6.04172 14.375 6.04172ZM14.375 1.25H0.625C0.28 1.25 0 0.97 0 0.625C0 0.28 0.28 0 0.625 0H14.375C14.72 0 15 0.28 15 0.625C15 0.97 14.72 1.25 14.375 1.25ZM14.375 10.8333H0.625C0.28 10.8333 0 10.5533 0 10.2083C0 9.86328 0.28 9.58328 0.625 9.58328H14.375C14.72 9.58328 15 9.86328 15 10.2083C15 10.5533 14.72 10.8333 14.375 10.8333Z" fill="var(--fill-0, #FFC387)"/>
</g>
</svg>
