<svg preserveAspectRatio="xMidYMid meet" overflow="visible" style="display: block;" viewBox="0 0 20 15" fill="none" xmlns="http://www.w3.org/2000/svg">
<path id="icon" d="M19.5323 2.56189C19.1323 1.29867 17.8087 0.533652 16.5906 0.358257C12.2092 -0.119419 7.7908 -0.119419 3.40939 0.358257C2.19126 0.533652 0.864044 1.29121 0.467698 2.56189C-0.155899 5.82286 -0.155899 9.17714 0.467698 12.4381C0.867681 13.6995 2.19126 14.4663 3.40939 14.6417C7.7908 15.1194 12.2092 15.1194 16.5906 14.6417C17.8087 14.4663 19.136 13.7088 19.5323 12.4381C20.1559 9.17714 20.1559 5.82286 19.5323 2.56189V2.56189ZM7.60738 11.4324V3.56574L13.8471 7.49907C11.7436 8.82572 9.70183 10.1113 7.60738 11.4324Z" fill="var(--fill-0, #FFC387)" fill-opacity="0.8"/>
</svg>
