<svg preserveAspectRatio="xMidYMid meet" overflow="visible" style="display: block;" viewBox="0 0 15.5 13.518" fill="none" xmlns="http://www.w3.org/2000/svg">
<g id="Group">
<g id="Vector">
<path d="M0 6.75334C0 6.55443 0.0790176 6.36366 0.21967 6.22301C0.360322 6.08236 0.551088 6.00334 0.75 6.00334H14.75C14.9489 6.00334 15.1397 6.08236 15.2803 6.22301C15.421 6.36366 15.5 6.55443 15.5 6.75334C15.5 6.95225 15.421 7.14302 15.2803 7.28367C15.1397 7.42432 14.9489 7.50334 14.75 7.50334H0.75C0.551088 7.50334 0.360322 7.42432 0.21967 7.28367C0.0790176 7.14302 0 6.95225 0 6.75334Z" fill="var(--fill-0, #FFC387)"/>
<path d="M8.22 0.21934C8.36063 0.07889 8.55125 5.96116e-07 8.75 5.96116e-07C8.94875 5.96116e-07 9.13938 0.07889 9.28 0.21934L15.28 6.21934C15.4205 6.35997 15.4993 6.55059 15.4993 6.74934C15.4993 6.94809 15.4205 7.13871 15.28 7.27934L9.28 13.2793C9.21134 13.353 9.12854 13.4121 9.03654 13.4531C8.94454 13.4941 8.84523 13.5162 8.74452 13.5179C8.64382 13.5197 8.54379 13.5012 8.4504 13.4635C8.35702 13.4257 8.27218 13.3696 8.20096 13.2984C8.12975 13.2272 8.0736 13.1423 8.03588 13.0489C7.99816 12.9556 7.97963 12.8555 7.98141 12.7548C7.98319 12.6541 8.00523 12.5548 8.04622 12.4628C8.08721 12.3708 8.14631 12.288 8.22 12.2193L13.69 6.74934L8.22 1.27934C8.07955 1.13872 8.00066 0.948091 8.00066 0.749341C8.00066 0.55059 8.07955 0.359966 8.22 0.21934Z" fill="var(--fill-0, #FFC387)"/>
</g>
</g>
</svg>
