<svg preserveAspectRatio="xMidYMid meet" overflow="visible" style="display: block;" viewBox="0 0 13.3333 11.6667" fill="none" xmlns="http://www.w3.org/2000/svg">
<g id="Group 41">
<path id="Path-3" fill-rule="evenodd" clip-rule="evenodd" d="M0.916597 5.02242C4.49573 3.37599 6.88238 2.29056 8.07654 1.76613C11.4861 0.268785 12.1946 0.00868039 12.6564 9.1576e-05C12.758 -0.00179744 12.985 0.0247784 13.1321 0.150803C13.2563 0.257216 13.2905 0.400965 13.3069 0.501856C13.3232 0.602748 13.3436 0.832581 13.3274 1.01217C13.1426 3.06192 12.3432 8.03612 11.9364 10.3319C11.7643 11.3033 11.4254 11.629 11.0974 11.6609C10.3844 11.7302 9.843 11.1634 9.15245 10.6855C8.07187 9.93757 7.46141 9.47202 6.41253 8.74222C5.20035 7.89882 5.98615 7.43527 6.67697 6.6777C6.85776 6.47944 9.99914 3.46258 10.0599 3.1889C10.0675 3.15467 10.0746 3.02708 10.0028 2.95971C9.93103 2.89234 9.82508 2.91538 9.74862 2.9337C9.64024 2.95968 7.914 4.16436 4.56991 6.54775C4.07992 6.903 3.63611 7.07609 3.23847 7.06702C2.8001 7.05702 1.95685 6.80532 1.32998 6.59017C0.561107 6.32629 -0.049982 6.18677 0.00323013 5.73861C0.0309463 5.50518 0.335402 5.26645 0.916597 5.02242Z" fill="var(--fill-0, #FFC387)" fill-opacity="0.8"/>
</g>
</svg>
