<svg preserveAspectRatio="xMidYMid meet" overflow="visible" style="display: block;" viewBox="0 0 198.43 21.72" fill="none" xmlns="http://www.w3.org/2000/svg">
<g id="Group 37">
<path id="Vector" d="M182.12 16.18C189.07 16.18 191.86 14.93 191.86 11.14V10.48C191.86 6.72 189.11 5.47 182.12 5.47C175.13 5.47 172.35 6.72 172.35 10.48V11.14C172.35 14.93 175.14 16.18 182.12 16.18ZM182.12 21.69C170.66 21.72 165.78 18.37 165.78 11.55V10.05C165.78 3.31999 170.66 0.03 182.12 0C193.55 0.03 198.43 3.31999 198.43 10.05V11.55C198.43 18.37 193.55 21.72 182.12 21.69ZM148.67 21.69C137.28 21.69 134.77 18.72 134.77 14.62V14.34H141.28V14.59C141.28 16.28 142.97 17.13 148.67 17.13C154.87 17.13 156.43 16.57 156.43 15.1V15.01C156.4 14.01 155.62 13.48 153.52 13.35L143.5 12.91C138.34 12.66 135.05 11 135.05 6.73999V6.67999C135.08 2.51999 138.06 0.0800018 148.38 0.0800018C158.7 0.0800018 161.9 2.87 161.9 6.94V7.25H155.39V7C155.39 5.43 153.67 4.64999 148.16 4.64999C142.65 4.64999 141.37 5.27999 141.34 6.42999V6.45999C141.34 7.58999 142.19 8.02999 144.35 8.14999L154.74 8.64999C160.37 8.92999 162.69 10.78 162.72 14.57V14.66C162.69 19.32 159.56 21.7 148.67 21.7V21.69ZM116.97 21.72C107.7 21.72 103.1 18.31 103.1 9.23V0.470001H109.42V9.83C109.42 14.78 112.08 16.28 116.96 16.28C121.84 16.28 124.5 14.78 124.5 9.83V0.470001H130.85V9.23C130.85 18.31 126.22 21.69 116.95 21.72H116.97ZM99.41 0.470001V5.89H82.73V9.73999H97.6V14.69H82.73V21.23H76.38V0.479996H99.42L99.41 0.470001ZM69.49 21.22H63.14V0.470001H69.49V21.22ZM44.44 6.09999L40.06 13.49H48.79L44.44 6.09999ZM60.15 21.22H53.36L51.29 17.75H37.55L35.48 21.22H28.69L41.56 0.440002H47.26L60.16 21.22H60.15ZM27.89 21.22H19.56L11.98 12.33L6.35 16.62V21.22H0V0.470001H6.35V10.08L18.78 0.470001H27.61L17 8.54999L27.89 21.23V21.22Z" fill="var(--fill-0, #FFC387)"/>
</g>
</svg>
