<svg width="19" height="19" viewBox="0 0 19 19" fill="none" xmlns="http://www.w3.org/2000/svg">
  <g clip-path="url(#clip_rental_li_decor)">
    <path
      fill-rule="evenodd"
      clip-rule="evenodd"
      d="M9.50281 2.99417C9.71371 2.59061 10.1348 2.51385 10.3667 2.47129C10.4745 2.45172 10.5415 2.43956 10.5279 2.40536C10.4716 2.26476 10.3297 1.94404 10.1847 1.61686V1.61667C10.0312 1.27011 9.87445 0.916332 9.81308 0.761292C9.6968 0.470972 9.50281 0.382812 9.50281 0.382812C9.50281 0.382812 9.30958 0.470972 9.19311 0.761292C9.13231 0.914243 8.97879 1.26099 8.82736 1.60337C8.68049 1.9353 8.53533 2.26286 8.47852 2.40536C8.46465 2.43956 8.53153 2.45172 8.63888 2.47129C8.87068 2.51347 9.29134 2.59004 9.50281 2.99417ZM2.99417 9.50205C2.59061 9.29058 2.51404 8.86935 2.47186 8.63755C2.45248 8.52963 2.44032 8.46275 2.40612 8.47624C2.26153 8.53419 1.92732 8.68239 1.59102 8.83135C1.25282 8.98126 0.912722 9.13193 0.762052 9.19235C0.471732 9.30901 0.382812 9.50205 0.382812 9.50205C0.382812 9.50205 0.471732 9.69528 0.762052 9.81175C0.916332 9.87312 1.26726 10.0285 1.61211 10.1813C1.941 10.327 2.26438 10.4703 2.40631 10.5271C2.44013 10.5408 2.45229 10.4739 2.47186 10.3662C2.51404 10.1344 2.59061 9.71352 2.99436 9.50205H2.99417ZM8.63888 16.5328C8.87068 16.4906 9.29134 16.4141 9.50281 16.0107C9.71352 16.4139 10.134 16.4903 10.366 16.5324C10.4743 16.5522 10.5415 16.5644 10.5279 16.5987C10.4705 16.7422 10.324 17.0732 10.1764 17.4072C10.0257 17.7477 9.87369 18.0912 9.81308 18.2428C9.69604 18.5331 9.50281 18.6213 9.50281 18.6213C9.50281 18.6213 9.30958 18.5331 9.19311 18.2428C9.13383 18.0942 8.98658 17.7615 8.83895 17.4281V17.4279H8.83876C8.68771 17.087 8.53666 16.7454 8.47852 16.5987C8.46446 16.5645 8.53115 16.5524 8.63888 16.5328ZM15.276 9.50205C15.276 9.50205 16.252 9.32801 16.232 8.59252C16.2136 7.85722 14.9368 7.56747 14.8773 7.80022C14.8648 7.8519 14.8713 7.9431 14.8791 8.05368C14.9062 8.43862 14.9499 9.05764 14.2583 9.05764H10.6464C10.5932 8.92488 10.5178 8.80215 10.4234 8.69474L10.6318 8.53799C11.411 7.95184 13.4347 6.42994 13.8095 6.12043C14.3353 5.68647 13.9279 5.22648 13.9279 5.22648C13.8095 5.09462 13.4415 4.88429 13.0733 5.26562C12.7452 5.60705 10.7581 8.07933 10.3382 8.60449C10.2252 8.49869 10.093 8.4155 9.94874 8.35939V4.74559C9.94874 4.05532 10.5659 4.09883 10.951 4.12581C11.0623 4.1336 11.1543 4.14006 11.2062 4.12714C11.438 4.06862 11.1476 2.79258 10.4123 2.77244C9.67761 2.75344 9.50357 3.72947 9.50357 3.72947C9.50357 3.72947 9.33029 2.75401 8.59404 2.77263C7.85931 2.79258 7.56899 4.06938 7.80174 4.12733C7.85361 4.14006 7.94557 4.1336 8.05672 4.12581C8.44185 4.09883 9.05916 4.05551 9.05916 4.74559V8.35901C8.91479 8.41494 8.78255 8.49816 8.66966 8.60411C8.24824 8.07914 6.26331 5.60686 5.93366 5.26543C5.56639 4.8841 5.1976 5.09443 5.07904 5.22629C5.07904 5.22629 4.67168 5.68609 5.1976 6.12024C5.6137 6.46376 8.0609 8.30201 8.58378 8.69474C8.48918 8.80203 8.41373 8.92479 8.36072 9.05764H4.74901C4.05798 9.05764 4.10149 8.43957 4.12847 8.05444C4.13626 7.94348 4.14272 7.8519 4.1298 7.79984C4.07204 7.56728 2.79448 7.8576 2.7751 8.59233C2.75591 9.32782 3.73061 9.50205 3.73061 9.50205C3.73061 9.50205 2.75591 9.67533 2.77529 10.4108C2.79429 11.1456 4.07204 11.4359 4.1298 11.2041C4.14253 11.152 4.13607 11.0608 4.12828 10.95C4.10111 10.5651 4.05741 9.94646 4.74901 9.94646H8.36091C8.41411 10.0814 8.49049 10.2028 8.58397 10.3094C8.06109 10.7011 5.61408 12.54 5.19779 12.8829C4.67187 13.3171 5.07923 13.7769 5.07923 13.7769C5.19779 13.9087 5.56582 14.1191 5.93385 13.7377C6.2635 13.3976 8.24843 10.9248 8.66985 10.3996C8.78233 10.5041 8.91343 10.5877 9.05935 10.6457V14.2576C9.05935 14.9478 8.44185 14.9049 8.05672 14.8779C7.94557 14.8703 7.8538 14.8639 7.80174 14.8768C7.56994 14.9345 7.86026 16.2113 8.59423 16.2298C9.33048 16.2499 9.50376 15.2744 9.50376 15.2744C9.50376 15.2744 9.6778 16.2499 10.4125 16.2298C11.1478 16.2113 11.4382 14.9345 11.2064 14.8768C11.1543 14.8639 11.0625 14.8701 10.9516 14.8779C10.5662 14.9049 9.94874 14.9478 9.94874 14.2576V10.6457C10.0929 10.5888 10.225 10.5054 10.3382 10.3996C10.7591 10.9248 12.7455 13.3978 13.0735 13.7377C13.4415 14.1191 13.8097 13.9087 13.9281 13.7769C13.9281 13.7769 14.3355 13.3163 13.8097 12.8829C13.4043 12.5489 11.0707 10.7956 10.468 10.3426L10.4236 10.3094C10.5181 10.2021 10.5936 10.0793 10.6466 9.94646H14.2585C14.9494 9.94646 14.906 10.564 14.8791 10.9489C14.8713 11.0601 14.8648 11.152 14.8777 11.2041C14.9362 11.4359 16.213 11.1456 16.2324 10.4108C16.2514 9.67552 15.2762 9.50205 15.2762 9.50205H15.276ZM9.50281 10.1315C9.33578 10.1316 9.17557 10.0653 9.05739 9.94726C8.93921 9.82922 8.87273 9.66908 8.87258 9.50205C8.87258 9.33491 8.93898 9.1746 9.05717 9.05641C9.17536 8.93822 9.33566 8.87182 9.50281 8.87182C9.66996 8.87182 9.83026 8.93822 9.94845 9.05641C10.0666 9.1746 10.133 9.33491 10.133 9.50205C10.133 9.58477 10.1167 9.66668 10.085 9.74309C10.0533 9.8195 10.0069 9.88891 9.94835 9.94737C9.88982 10.0058 9.82035 10.0522 9.7439 10.0838C9.66746 10.1154 9.58553 10.1316 9.50281 10.1315ZM17.4144 8.83192C17.7526 8.98202 18.0927 9.13269 18.2436 9.19311C18.5347 9.30939 18.6228 9.50281 18.6228 9.50281C18.6228 9.50281 18.5339 9.69528 18.2436 9.81251C18.0906 9.87331 17.7429 10.0272 17.4 10.1792C17.0688 10.3259 16.742 10.4707 16.5995 10.5279C16.5653 10.5414 16.5533 10.4747 16.5338 10.3669C16.4916 10.1351 16.415 9.71428 16.0113 9.50281C16.415 9.29134 16.4916 8.87011 16.5338 8.63812C16.5533 8.53039 16.5653 8.46332 16.5995 8.477C16.7441 8.53495 17.0783 8.68315 17.4146 8.83211L17.4144 8.83192Z"
      fill="#C1A560"
    />
  </g>
  <defs>
    <clipPath id="clip_rental_li_decor">
      <rect width="19" height="19" fill="white" />
    </clipPath>
  </defs>
</svg>
