<svg width="97" height="97" viewBox="0 0 97 97" fill="none" xmlns="http://www.w3.org/2000/svg">
<g clip-path="url(#clip0_3324_1790)">
<g opacity="0.4">
<path d="M382.791 280.743H116.522C51.9849 280.743 -0.523438 239.186 -0.523438 188.101V92.3928C-0.523438 41.3078 51.9849 -0.25 116.522 -0.25H382.791C447.328 -0.25 499.829 41.3078 499.829 92.3928V188.101C499.829 239.186 447.328 280.743 382.791 280.743ZM116.522 0.9588C52.8317 0.9588 1.01092 41.9781 1.01092 92.3928V188.101C1.01092 238.515 52.8317 279.535 116.522 279.535H382.791C446.481 279.535 498.302 238.515 498.302 188.101V92.3928C498.302 41.9781 446.481 0.9588 382.791 0.9588H116.522Z" fill="#FCF5ED"/>
<path d="M382.794 273.48H116.525C57.047 273.48 8.66406 235.182 8.66406 188.102V92.3942C8.66406 45.3137 57.0543 7.01562 116.525 7.01562H382.794C442.265 7.01562 490.655 45.3137 490.655 92.3942V188.102C490.655 235.177 442.265 273.48 382.794 273.48ZM116.525 8.22442C57.8938 8.22442 10.1984 45.9839 10.1984 92.3942V188.102C10.1984 234.512 57.901 272.272 116.525 272.272H382.794C441.426 272.272 489.121 234.512 489.121 188.102V92.3942C489.121 45.9839 441.426 8.22442 382.794 8.22442H116.525Z" fill="#FCF5ED"/>
<path d="M11.1132 31.4072C10.1072 31.4072 9.07949 31.3041 8.04453 31.0692C7.79121 31.0119 1.9071 29.637 0.0542865 25.0767C-1.32808 21.668 -0.293122 17.0619 3.84675 15.2516C6.52464 14.0829 10.7297 13.9454 13.2483 16.0021C14.7393 17.2166 15.5643 19.1415 15.34 20.906C15.188 22.1206 14.5438 23.0888 13.5306 23.6388C11.7357 24.6127 9.32557 24.0054 8.37021 23.7018C7.97939 23.5757 7.79122 23.2205 7.95045 22.9112C8.10967 22.6018 8.55839 22.4529 8.94922 22.5789C9.51375 22.7565 11.4534 23.3008 12.6693 22.6419C13.299 22.2982 13.7115 21.6394 13.8201 20.7915C13.9938 19.3936 13.3279 17.8124 12.1482 16.8557C10.1579 15.2344 6.76348 15.3719 4.58498 16.3229C1.13991 17.8296 0.314834 21.7768 1.50903 24.7158C3.10852 28.6688 8.23994 29.8661 8.45707 29.9119C13.2483 30.9832 17.8876 28.9438 20.3628 26.446C23.1782 23.6101 23.0262 20.3389 22.8308 19.0613C22.7802 18.729 23.0769 18.4254 23.4967 18.3853C23.9237 18.3509 24.3 18.5801 24.3507 18.9124C24.5678 20.3389 24.7343 23.9996 21.5715 27.1907C19.3061 29.4651 15.4123 31.4072 11.1132 31.4072Z" fill="#FCF5ED"/>
<path d="M25.4346 19.5264C24.7109 19.5264 24.1101 19.4864 23.6687 19.4463C23.2489 19.4062 22.9521 19.1025 23.0028 18.7702C23.0535 18.438 23.4298 18.2088 23.8568 18.2432C25.4708 18.4036 29.5962 18.5182 33.186 16.2896C36.3416 14.3303 38.9254 10.6523 37.5647 6.86547C37.5068 6.69361 36.0087 2.63752 31.0003 1.3657C27.2802 0.420422 22.3008 1.07352 20.3973 3.8005C19.1886 5.52491 19.0149 8.21176 21.0704 9.78722C22.2791 10.7153 24.2766 11.2539 26.0426 11.1106C27.121 11.0247 27.946 10.7039 28.3875 10.1998C29.2199 9.2373 28.5395 7.70193 28.3079 7.25507C28.1487 6.94571 28.3369 6.59051 28.7277 6.46448C29.1185 6.33844 29.5673 6.48737 29.7265 6.79673C30.1101 7.55295 30.8773 9.46069 29.6469 10.8815C28.9521 11.6835 27.7289 12.1877 26.1946 12.3137C23.9799 12.4913 21.5408 11.8382 19.9992 10.658C17.401 8.66436 17.5747 5.33585 19.0583 3.21614C21.3454 -0.0550923 27.1644 -0.880055 31.4707 0.214174C37.2535 1.68651 38.9688 6.34417 39.0412 6.53895C40.59 10.8643 37.695 15.035 34.1341 17.2463C31.0727 19.1369 27.6855 19.5264 25.4346 19.5264Z" fill="#FCF5ED"/>
<path d="M19.5324 18.6439C18.5553 18.6439 17.5782 18.3517 16.8328 17.7616C16.109 17.1887 15.7109 16.4325 15.7109 15.6247C15.7109 14.817 16.109 14.0608 16.8328 13.4879C18.273 12.3478 20.7845 12.3478 22.232 13.4879C22.9557 14.0608 23.3538 14.817 23.3538 15.6247C23.3538 16.4325 22.9557 17.1887 22.2392 17.7616C21.4865 18.346 20.5094 18.6439 19.5324 18.6439ZM19.5324 13.8144C18.9244 13.8144 18.3454 14.0035 17.9184 14.3415C17.4841 14.6852 17.2453 15.1378 17.2453 15.619C17.2453 16.1002 17.4841 16.5585 17.9184 16.8966C18.8086 17.6012 20.2561 17.6012 21.1536 16.8966C21.5878 16.5528 21.8194 16.1002 21.8194 15.619C21.8194 15.1378 21.5806 14.6795 21.1536 14.3415C20.7121 14.0035 20.1403 13.8144 19.5324 13.8144Z" fill="#FCF5ED"/>
<path d="M499.069 280.741H0.243745C-0.176032 280.741 -0.523438 280.472 -0.523438 280.134V0.34942C-0.523438 0.0171407 -0.183269 -0.257812 0.243745 -0.257812H499.069C499.489 -0.257812 499.837 0.0114117 499.837 0.34942V280.134C499.829 280.472 499.489 280.741 499.069 280.741ZM1.01092 279.533H498.302V0.956722H1.01092V279.533V279.533Z" fill="#FCF5ED"/>
</g>
</g>
<defs>
<clipPath id="clip0_3324_1790">
<rect width="97" height="97" fill="white"/>
</clipPath>
</defs>
</svg>
