<svg width="97" height="97" viewBox="0 0 97 97" fill="none" xmlns="http://www.w3.org/2000/svg">
<g clip-path="url(#clip0_3324_1790)">
<g opacity="0.4">
<path d="M-124.791 97.7434H141.478C206.015 97.7434 258.523 56.1856 258.523 5.10057V-90.6072C258.523 -141.692 206.015 -183.25 141.478 -183.25H-124.791C-189.328 -183.25 -241.829 -141.692 -241.829 -90.6072V5.10057C-241.829 56.1856 -189.328 97.7434 -124.791 97.7434ZM141.478 -182.041C205.168 -182.041 256.989 -141.022 256.989 -90.6072V5.10057C256.989 55.5153 205.168 96.5346 141.478 96.5346H-124.791C-188.481 96.5346 -240.302 55.5153 -240.302 5.10057V-90.6072C-240.302 -141.022 -188.481 -182.041 -124.791 -182.041H141.478Z" fill="#FCF5ED"/>
<path d="M-124.794 90.4805H141.475C200.953 90.4805 249.336 52.1824 249.336 5.10193V-90.6058C249.336 -137.686 200.946 -175.984 141.475 -175.984H-124.794C-184.265 -175.984 -232.655 -137.686 -232.655 -90.6058V5.10193C-232.655 52.1767 -184.265 90.4805 -124.794 90.4805ZM141.475 -174.776C200.106 -174.776 247.802 -137.016 247.802 -90.6058V5.10193C247.802 51.5121 200.099 89.2717 141.475 89.2717H-124.794C-183.426 89.2717 -231.121 51.5121 -231.121 5.10193V-90.6058C-231.121 -137.016 -183.426 -174.776 -124.794 -174.776H141.475Z" fill="#FCF5ED"/>
<path d="M-241.069 97.7414H257.756C258.176 97.7414 258.523 97.4721 258.523 97.1341V-182.651C258.523 -182.983 258.183 -183.258 257.756 -183.258H-241.069C-241.489 -183.258 -241.837 -182.989 -241.837 -182.651V97.1341C-241.829 97.4721 -241.489 97.7414 -241.069 97.7414ZM256.989 96.5326H-240.302V-182.043H256.989V96.5326V96.5326Z" fill="#FCF5ED"/>
</g>
</g>
<defs>
<clipPath id="clip0_3324_1790">
<rect width="97" height="97" fill="white" transform="matrix(-1 0 0 1 97 0)"/>
</clipPath>
</defs>
</svg>
