<svg width="97" height="97" viewBox="0 0 97 97" fill="none" xmlns="http://www.w3.org/2000/svg">
<g clip-path="url(#clip0_3324_1790)">
<g opacity="0.4">
<path d="M-285.791 -91.7434H-19.5221C45.0151 -91.7434 97.5234 -50.1856 97.5234 0.899432V96.6072C97.5234 147.692 45.0151 189.25 -19.5221 189.25H-285.791C-350.328 189.25 -402.829 147.692 -402.829 96.6072V0.899432C-402.829 -50.1856 -350.328 -91.7434 -285.791 -91.7434ZM-19.5221 188.041C44.1683 188.041 95.9891 147.022 95.9891 96.6072V0.899432C95.9891 -49.5153 44.1683 -90.5346 -19.5221 -90.5346H-285.791C-349.481 -90.5346 -401.302 -49.5153 -401.302 0.899432V96.6072C-401.302 147.022 -349.481 188.041 -285.791 188.041H-19.5221Z" fill="#FCF5ED"/>
<path d="M-285.794 -84.4805H-19.5251C39.953 -84.4805 88.3359 -46.1824 88.3359 0.898074V96.6058C88.3359 143.686 39.9457 181.984 -19.5251 181.984H-285.794C-345.265 181.984 -393.655 143.686 -393.655 96.6058V0.898074C-393.655 -46.1767 -345.265 -84.4805 -285.794 -84.4805ZM-19.5251 180.776C39.1062 180.776 86.8016 143.016 86.8016 96.6058V0.898074C86.8016 -45.5121 39.099 -83.2717 -19.5251 -83.2717H-285.794C-344.426 -83.2717 -392.121 -45.5121 -392.121 0.898074V96.6058C-392.121 143.016 -344.426 180.776 -285.794 180.776H-19.5251Z" fill="#FCF5ED"/>
<path d="M-402.069 -91.7414H96.7563C97.176 -91.7414 97.5234 -91.4721 97.5234 -91.1341V188.651C97.5234 188.983 97.1833 189.258 96.7563 189.258H-402.069C-402.489 189.258 -402.837 188.989 -402.837 188.651V-91.1341C-402.829 -91.4721 -402.489 -91.7414 -402.069 -91.7414ZM95.9891 -90.5326H-401.302V188.043H95.9891V-90.5326V-90.5326Z" fill="#FCF5ED"/>
</g>
</g>
<defs>
<clipPath id="clip0_3324_1790">
<rect width="97" height="97" fill="white" transform="matrix(-1 0 0 -1 97 97)"/>
</clipPath>
</defs>
</svg>
