<svg width="97" height="97" viewBox="0 0 97 97" fill="none" xmlns="http://www.w3.org/2000/svg">
<g clip-path="url(#clip0_3324_1790)">
<g opacity="0.4">
<path d="M382.791 -183.743H116.522C51.9849 -183.743 -0.523438 -142.186 -0.523438 -91.1006V4.6072C-0.523438 55.6922 51.9849 97.25 116.522 97.25H382.791C447.328 97.25 499.829 55.6922 499.829 4.6072V-91.1006C499.829 -142.186 447.328 -183.743 382.791 -183.743ZM116.522 96.0412C52.8317 96.0412 1.01092 55.0219 1.01092 4.6072V-91.1006C1.01092 -141.515 52.8317 -182.535 116.522 -182.535H382.791C446.481 -182.535 498.302 -141.515 498.302 -91.1006V4.6072C498.302 55.0219 446.481 96.0412 382.791 96.0412H116.522Z" fill="#FCF5ED"/>
<path d="M382.794 -176.48H116.525C57.047 -176.48 8.66406 -138.182 8.66406 -91.1019V4.60584C8.66406 51.6863 57.0543 89.9844 116.525 89.9844H382.794C442.265 89.9844 490.655 51.6863 490.655 4.60584V-91.1019C490.655 -138.177 442.265 -176.48 382.794 -176.48ZM116.525 88.7756C57.8938 88.7756 10.1984 51.0161 10.1984 4.60584V-91.1019C10.1984 -137.512 57.901 -175.272 116.525 -175.272H382.794C441.426 -175.272 489.121 -137.512 489.121 -91.1019V4.60584C489.121 51.0161 441.426 88.7756 382.794 88.7756H116.525Z" fill="#FCF5ED"/>
<path d="M11.1132 65.5928C10.1072 65.5928 9.07949 65.6959 8.04453 65.9308C7.79121 65.9881 1.9071 67.363 0.0542865 71.9233C-1.32808 75.332 -0.293122 79.9381 3.84675 81.7484C6.52464 82.9171 10.7297 83.0546 13.2483 80.9979C14.7393 79.7834 15.5643 77.8585 15.34 76.094C15.188 74.8794 14.5438 73.9112 13.5306 73.3612C11.7357 72.3873 9.32557 72.9946 8.37021 73.2982C7.97939 73.4243 7.79122 73.7795 7.95045 74.0888C8.10967 74.3982 8.55839 74.5471 8.94922 74.4211C9.51375 74.2435 11.4534 73.6992 12.6693 74.3581C13.299 74.7018 13.7115 75.3606 13.8201 76.2085C13.9938 77.6064 13.3279 79.1876 12.1482 80.1443C10.1579 81.7656 6.76348 81.6281 4.58498 80.6771C1.13991 79.1704 0.314834 75.2232 1.50903 72.2842C3.10852 68.3312 8.23994 67.1339 8.45707 67.0881C13.2483 66.0168 17.8876 68.0562 20.3628 70.554C23.1782 73.3899 23.0262 76.6611 22.8308 77.9387C22.7802 78.271 23.0769 78.5746 23.4967 78.6147C23.9237 78.6491 24.3 78.4199 24.3507 78.0876C24.5678 76.6611 24.7343 73.0004 21.5715 69.8093C19.3061 67.5349 15.4123 65.5928 11.1132 65.5928Z" fill="#FCF5ED"/>
<path d="M25.4346 77.4736C24.7109 77.4736 24.1101 77.5136 23.6687 77.5537C23.2489 77.5938 22.9521 77.8975 23.0028 78.2298C23.0535 78.562 23.4298 78.7912 23.8568 78.7568C25.4708 78.5964 29.5962 78.4818 33.186 80.7104C36.3416 82.6697 38.9254 86.3477 37.5647 90.1345C37.5068 90.3064 36.0087 94.3625 31.0003 95.6343C27.2802 96.5796 22.3008 95.9265 20.3973 93.1995C19.1886 91.4751 19.0149 88.7882 21.0704 87.2128C22.2791 86.2847 24.2766 85.7461 26.0426 85.8894C27.121 85.9753 27.946 86.2961 28.3875 86.8002C29.2199 87.7627 28.5395 89.2981 28.3079 89.7449C28.1487 90.0543 28.3369 90.4095 28.7277 90.5355C29.1185 90.6616 29.5673 90.5126 29.7265 90.2033C30.1101 89.447 30.8773 87.5393 29.6469 86.1185C28.9521 85.3165 27.7289 84.8123 26.1946 84.6863C23.9799 84.5087 21.5408 85.1618 19.9992 86.342C17.401 88.3356 17.5747 91.6642 19.0583 93.7839C21.3454 97.0551 27.1644 97.8801 31.4707 96.7858C37.2535 95.3135 38.9688 90.6558 39.0412 90.461C40.59 86.1357 37.695 81.965 34.1341 79.7537C31.0727 77.8631 27.6855 77.4736 25.4346 77.4736Z" fill="#FCF5ED"/>
<path d="M19.5324 78.3561C18.5553 78.3561 17.5782 78.6483 16.8328 79.2384C16.109 79.8113 15.7109 80.5675 15.7109 81.3753C15.7109 82.183 16.109 82.9392 16.8328 83.5121C18.273 84.6522 20.7845 84.6522 22.232 83.5121C22.9557 82.9392 23.3538 82.183 23.3538 81.3753C23.3538 80.5675 22.9557 79.8113 22.2392 79.2384C21.4865 78.654 20.5094 78.3561 19.5324 78.3561ZM19.5324 83.1856C18.9244 83.1856 18.3454 82.9965 17.9184 82.6585C17.4841 82.3148 17.2453 81.8622 17.2453 81.381C17.2453 80.8998 17.4841 80.4415 17.9184 80.1034C18.8086 79.3988 20.2561 79.3988 21.1536 80.1034C21.5878 80.4472 21.8194 80.8998 21.8194 81.381C21.8194 81.8622 21.5806 82.3205 21.1536 82.6585C20.7121 82.9965 20.1403 83.1856 19.5324 83.1856Z" fill="#FCF5ED"/>
<path d="M499.069 -183.741H0.243745C-0.176032 -183.741 -0.523438 -183.472 -0.523438 -183.134V96.6506C-0.523438 96.9829 -0.183269 97.2578 0.243745 97.2578H499.069C499.489 97.2578 499.837 96.9886 499.837 96.6506V-183.134C499.829 -183.472 499.489 -183.741 499.069 -183.741ZM1.01092 -182.533H498.302V96.0433H1.01092V-182.533V-182.533Z" fill="#FCF5ED"/>
</g>
</g>
<defs>
<clipPath id="clip0_3324_1790">
<rect width="97" height="97" fill="white" transform="matrix(1 0 0 -1 0 97)"/>
</clipPath>
</defs>
</svg>
