<svg width="97" height="97" viewBox="0 0 97 97" fill="none" xmlns="http://www.w3.org/2000/svg">
<g clip-path="url(#clip0_3324_1790)">
<g opacity="0.4">
<path d="M382.791 -91.7434H116.522C51.9849 -91.7434 -0.523438 -50.1856 -0.523438 0.899432V96.6072C-0.523438 147.692 51.9849 189.25 116.522 189.25H382.791C447.328 189.25 499.829 147.692 499.829 96.6072V0.899432C499.829 -50.1856 447.328 -91.7434 382.791 -91.7434ZM116.522 188.041C52.8317 188.041 1.01092 147.022 1.01092 96.6072V0.899432C1.01092 -49.5153 52.8317 -90.5346 116.522 -90.5346H382.791C446.481 -90.5346 498.302 -49.5153 498.302 0.899432V96.6072C498.302 147.022 446.481 188.041 382.791 188.041H116.522Z" fill="#FCF5ED"/>
<path d="M382.794 -84.4805H116.525C57.047 -84.4805 8.66406 -46.1824 8.66406 0.898074V96.6058C8.66406 143.686 57.0543 181.984 116.525 181.984H382.794C442.265 181.984 490.655 143.686 490.655 96.6058V0.898074C490.655 -46.1767 442.265 -84.4805 382.794 -84.4805ZM116.525 180.776C57.8938 180.776 10.1984 143.016 10.1984 96.6058V0.898074C10.1984 -45.5121 57.901 -83.2717 116.525 -83.2717H382.794C441.426 -83.2717 489.121 -45.5121 489.121 0.898074V96.6058C489.121 143.016 441.426 180.776 382.794 180.776H116.525Z" fill="#FCF5ED"/>
<path d="M499.069 -91.7414H0.243745C-0.176032 -91.7414 -0.523438 -91.4721 -0.523438 -91.1341V188.651C-0.523438 188.983 -0.183269 189.258 0.243745 189.258H499.069C499.489 189.258 499.837 188.989 499.837 188.651V-91.1341C499.829 -91.4721 499.489 -91.7414 499.069 -91.7414ZM1.01092 -90.5326H498.302V188.043H1.01092V-90.5326V-90.5326Z" fill="#FCF5ED"/>
</g>
</g>
<defs>
<clipPath id="clip0_3324_1790">
<rect width="97" height="97" fill="white" transform="matrix(1 0 0 -1 0 97)"/>
</clipPath>
</defs>
</svg>
