<svg width="97" height="97" viewBox="0 0 97 97" fill="none" xmlns="http://www.w3.org/2000/svg">
<g clip-path="url(#clip0_3324_1790)">
<g opacity="0.4">
<path d="M-124.791 -0.743436H141.478C206.015 -0.743436 258.523 40.8144 258.523 91.8994V187.607C258.523 238.692 206.015 280.25 141.478 280.25H-124.791C-189.328 280.25 -241.829 238.692 -241.829 187.607V91.8994C-241.829 40.8144 -189.328 -0.743436 -124.791 -0.743436ZM141.478 279.041C205.168 279.041 256.989 238.022 256.989 187.607V91.8994C256.989 41.4847 205.168 0.465364 141.478 0.465364H-124.791C-188.481 0.465364 -240.302 41.4847 -240.302 91.8994V187.607C-240.302 238.022 -188.481 279.041 -124.791 279.041H141.478Z" fill="#FCF5ED"/>
<path d="M-124.794 6.51954H141.475C200.953 6.51954 249.336 44.8176 249.336 91.8981V187.606C249.336 234.686 200.946 272.984 141.475 272.984H-124.794C-184.265 272.984 -232.655 234.686 -232.655 187.606V91.8981C-232.655 44.8233 -184.265 6.51954 -124.794 6.51954ZM141.475 271.776C200.106 271.776 247.802 234.016 247.802 187.606V91.8981C247.802 45.4879 200.099 7.72834 141.475 7.72834H-124.794C-183.426 7.72834 -231.121 45.4879 -231.121 91.8981V187.606C-231.121 234.016 -183.426 271.776 -124.794 271.776H141.475Z" fill="#FCF5ED"/>
<path d="M-241.069 -0.741387H257.756C258.176 -0.741387 258.523 -0.472093 258.523 -0.134085V279.651C258.523 279.983 258.183 280.258 257.756 280.258H-241.069C-241.489 280.258 -241.837 279.989 -241.837 279.651V-0.134085C-241.829 -0.472093 -241.489 -0.741387 -241.069 -0.741387ZM256.989 0.467412H-240.302V279.043H256.989V0.467412V0.467412Z" fill="#FCF5ED"/>
</g>
</g>
<defs>
<clipPath id="clip0_3324_1790">
<rect width="97" height="97" fill="white" transform="matrix(-1 0 0 -1 97 97)"/>
</clipPath>
</defs>
</svg>
