<svg width="97" height="97" viewBox="0 0 97 97" fill="none" xmlns="http://www.w3.org/2000/svg">
<g clip-path="url(#clip0_3324_1790)">
<g opacity="0.4">
<path d="M-285.791 280.743H-19.5221C45.0151 280.743 97.5234 239.186 97.5234 188.101V92.3928C97.5234 41.3078 45.0151 -0.25 -19.5221 -0.25H-285.791C-350.328 -0.25 -402.829 41.3078 -402.829 92.3928V188.101C-402.829 239.186 -350.328 280.743 -285.791 280.743ZM-19.5221 0.9588C44.1683 0.9588 95.9891 41.9781 95.9891 92.3928V188.101C95.9891 238.515 44.1683 279.535 -19.5221 279.535H-285.791C-349.481 279.535 -401.302 238.515 -401.302 188.101V92.3928C-401.302 41.9781 -349.481 0.9588 -285.791 0.9588H-19.5221Z" fill="#FCF5ED"/>
<path d="M-285.794 273.48H-19.5251C39.953 273.48 88.3359 235.182 88.3359 188.102V92.3942C88.3359 45.3137 39.9457 7.01562 -19.5251 7.01562H-285.794C-345.265 7.01562 -393.655 45.3137 -393.655 92.3942V188.102C-393.655 235.177 -345.265 273.48 -285.794 273.48ZM-19.5251 8.22442C39.1062 8.22442 86.8016 45.9839 86.8016 92.3942V188.102C86.8016 234.512 39.099 272.272 -19.5251 272.272H-285.794C-344.426 272.272 -392.121 234.512 -392.121 188.102V92.3942C-392.121 45.9839 -344.426 8.22442 -285.794 8.22442H-19.5251Z" fill="#FCF5ED"/>
<path d="M85.8868 31.4072C86.8928 31.4072 87.9205 31.3041 88.9555 31.0692C89.2088 31.0119 95.0929 29.637 96.9457 25.0767C98.3281 21.668 97.2931 17.0619 93.1532 15.2516C90.4754 14.0829 86.2703 13.9454 83.7517 16.0021C82.2607 17.2166 81.4357 19.1415 81.66 20.906C81.812 22.1206 82.4562 23.0888 83.4694 23.6388C85.2643 24.6127 87.6744 24.0054 88.6298 23.7018C89.0206 23.5757 89.2088 23.2205 89.0496 22.9112C88.8903 22.6018 88.4416 22.4529 88.0508 22.5789C87.4863 22.7565 85.5466 23.3008 84.3307 22.6419C83.701 22.2982 83.2885 21.6394 83.1799 20.7915C83.0062 19.3936 83.6721 17.8124 84.8518 16.8557C86.8421 15.2344 90.2365 15.3719 92.415 16.3229C95.8601 17.8296 96.6852 21.7768 95.491 24.7158C93.8915 28.6688 88.7601 29.8661 88.5429 29.9119C83.7517 30.9832 79.1124 28.9438 76.6372 26.446C73.8218 23.6101 73.9738 20.3389 74.1692 19.0613C74.2198 18.729 73.9231 18.4254 73.5033 18.3853C73.0763 18.3509 72.7 18.5801 72.6493 18.9124C72.4322 20.3389 72.2657 23.9996 75.4285 27.1907C77.6939 29.4651 81.5877 31.4072 85.8868 31.4072Z" fill="#FCF5ED"/>
<path d="M71.5654 19.5264C72.2891 19.5264 72.8899 19.4864 73.3313 19.4463C73.7511 19.4062 74.0479 19.1025 73.9972 18.7702C73.9465 18.438 73.5702 18.2088 73.1432 18.2432C71.5292 18.4036 67.4038 18.5182 63.814 16.2896C60.6584 14.3303 58.0746 10.6523 59.4353 6.86547C59.4932 6.69361 60.9913 2.63752 65.9997 1.3657C69.7198 0.420422 74.6992 1.07352 76.6027 3.8005C77.8114 5.52491 77.9851 8.21176 75.9296 9.78722C74.7209 10.7153 72.7234 11.2539 70.9574 11.1106C69.879 11.0247 69.054 10.7039 68.6125 10.1998C67.7801 9.2373 68.4605 7.70193 68.6921 7.25507C68.8513 6.94571 68.6631 6.59051 68.2723 6.46448C67.8815 6.33844 67.4327 6.48737 67.2735 6.79673C66.8899 7.55295 66.1227 9.46069 67.3531 10.8815C68.0479 11.6835 69.2711 12.1877 70.8054 12.3137C73.0201 12.4913 75.4592 11.8382 77.0008 10.658C79.599 8.66436 79.4253 5.33585 77.9417 3.21614C75.6546 -0.0550923 69.8356 -0.880055 65.5293 0.214174C59.7465 1.68651 58.0312 6.34417 57.9588 6.53895C56.41 10.8643 59.305 15.035 62.8659 17.2463C65.9273 19.1369 69.3145 19.5264 71.5654 19.5264Z" fill="#FCF5ED"/>
<path d="M77.4676 18.6439C78.4447 18.6439 79.4218 18.3517 80.1672 17.7616C80.891 17.1887 81.2891 16.4325 81.2891 15.6247C81.2891 14.817 80.891 14.0608 80.1672 13.4879C78.727 12.3478 76.2155 12.3478 74.768 13.4879C74.0443 14.0608 73.6462 14.817 73.6462 15.6247C73.6462 16.4325 74.0443 17.1887 74.7608 17.7616C75.5135 18.346 76.4906 18.6439 77.4676 18.6439ZM77.4676 13.8144C78.0756 13.8144 78.6546 14.0035 79.0816 14.3415C79.5159 14.6852 79.7547 15.1378 79.7547 15.619C79.7547 16.1002 79.5159 16.5585 79.0816 16.8966C78.1914 17.6012 76.7439 17.6012 75.8464 16.8966C75.4122 16.5528 75.1806 16.1002 75.1806 15.619C75.1806 15.1378 75.4194 14.6795 75.8464 14.3415C76.2879 14.0035 76.8597 13.8144 77.4676 13.8144Z" fill="#FCF5ED"/>
<path d="M-402.069 280.741H96.7563C97.176 280.741 97.5234 280.472 97.5234 280.134V0.34942C97.5234 0.0171407 97.1833 -0.257812 96.7563 -0.257812H-402.069C-402.489 -0.257812 -402.837 0.0114117 -402.837 0.34942V280.134C-402.829 280.472 -402.489 280.741 -402.069 280.741ZM95.9891 279.533H-401.302V0.956722H95.9891V279.533V279.533Z" fill="#FCF5ED"/>
</g>
</g>
<defs>
<clipPath id="clip0_3324_1790">
<rect width="97" height="97" fill="white" transform="matrix(-1 0 0 1 97 0)"/>
</clipPath>
</defs>
</svg>
