<svg width="97" height="97" viewBox="0 0 97 97" fill="none" xmlns="http://www.w3.org/2000/svg">
<g clip-path="url(#clip0_3324_1790)">
<g opacity="0.4">
<path d="M-285.791 -183.743H-19.5221C45.0151 -183.743 97.5234 -142.186 97.5234 -91.1006V4.6072C97.5234 55.6922 45.0151 97.25 -19.5221 97.25H-285.791C-350.328 97.25 -402.829 55.6922 -402.829 4.6072V-91.1006C-402.829 -142.186 -350.328 -183.743 -285.791 -183.743ZM-19.5221 96.0412C44.1683 96.0412 95.9891 55.0219 95.9891 4.6072V-91.1006C95.9891 -141.515 44.1683 -182.535 -19.5221 -182.535H-285.791C-349.481 -182.535 -401.302 -141.515 -401.302 -91.1006V4.6072C-401.302 55.0219 -349.481 96.0412 -285.791 96.0412H-19.5221Z" fill="#FCF5ED"/>
<path d="M-285.794 -176.48H-19.5251C39.953 -176.48 88.3359 -138.182 88.3359 -91.1019V4.60584C88.3359 51.6863 39.9457 89.9844 -19.5251 89.9844H-285.794C-345.265 89.9844 -393.655 51.6863 -393.655 4.60584V-91.1019C-393.655 -138.177 -345.265 -176.48 -285.794 -176.48ZM-19.5251 88.7756C39.1062 88.7756 86.8016 51.0161 86.8016 4.60584V-91.1019C86.8016 -137.512 39.099 -175.272 -19.5251 -175.272H-285.794C-344.426 -175.272 -392.121 -137.512 -392.121 -91.1019V4.60584C-392.121 51.0161 -344.426 88.7756 -285.794 88.7756H-19.5251Z" fill="#FCF5ED"/>
<path d="M85.8868 65.5928C86.8928 65.5928 87.9205 65.6959 88.9555 65.9308C89.2088 65.9881 95.0929 67.363 96.9457 71.9233C98.3281 75.332 97.2931 79.9381 93.1532 81.7484C90.4754 82.9171 86.2703 83.0546 83.7517 80.9979C82.2607 79.7834 81.4357 77.8585 81.66 76.094C81.812 74.8794 82.4562 73.9112 83.4694 73.3612C85.2643 72.3873 87.6744 72.9946 88.6298 73.2982C89.0206 73.4243 89.2088 73.7795 89.0496 74.0888C88.8903 74.3982 88.4416 74.5471 88.0508 74.4211C87.4863 74.2435 85.5466 73.6992 84.3307 74.3581C83.701 74.7018 83.2885 75.3606 83.1799 76.2085C83.0062 77.6064 83.6721 79.1876 84.8518 80.1443C86.8421 81.7656 90.2365 81.6281 92.415 80.6771C95.8601 79.1704 96.6852 75.2232 95.491 72.2842C93.8915 68.3312 88.7601 67.1339 88.5429 67.0881C83.7517 66.0168 79.1124 68.0562 76.6372 70.554C73.8218 73.3899 73.9738 76.6611 74.1692 77.9387C74.2198 78.271 73.9231 78.5746 73.5033 78.6147C73.0763 78.6491 72.7 78.4199 72.6493 78.0876C72.4322 76.6611 72.2657 73.0004 75.4285 69.8093C77.6939 67.5349 81.5877 65.5928 85.8868 65.5928Z" fill="#FCF5ED"/>
<path d="M71.5654 77.4736C72.2891 77.4736 72.8899 77.5136 73.3313 77.5537C73.7511 77.5938 74.0479 77.8975 73.9972 78.2298C73.9465 78.562 73.5702 78.7912 73.1432 78.7568C71.5292 78.5964 67.4038 78.4818 63.814 80.7104C60.6584 82.6697 58.0746 86.3477 59.4353 90.1345C59.4932 90.3064 60.9913 94.3625 65.9997 95.6343C69.7198 96.5796 74.6992 95.9265 76.6027 93.1995C77.8114 91.4751 77.9851 88.7882 75.9296 87.2128C74.7209 86.2847 72.7234 85.7461 70.9574 85.8894C69.879 85.9753 69.054 86.2961 68.6125 86.8002C67.7801 87.7627 68.4605 89.2981 68.6921 89.7449C68.8513 90.0543 68.6631 90.4095 68.2723 90.5355C67.8815 90.6616 67.4327 90.5126 67.2735 90.2033C66.8899 89.447 66.1227 87.5393 67.3531 86.1185C68.0479 85.3165 69.2711 84.8123 70.8054 84.6863C73.0201 84.5087 75.4592 85.1618 77.0008 86.342C79.599 88.3356 79.4253 91.6642 77.9417 93.7839C75.6546 97.0551 69.8356 97.8801 65.5293 96.7858C59.7465 95.3135 58.0312 90.6558 57.9588 90.461C56.41 86.1357 59.305 81.965 62.8659 79.7537C65.9273 77.8631 69.3145 77.4736 71.5654 77.4736Z" fill="#FCF5ED"/>
<path d="M77.4676 78.3561C78.4447 78.3561 79.4218 78.6483 80.1672 79.2384C80.891 79.8113 81.2891 80.5675 81.2891 81.3753C81.2891 82.183 80.891 82.9392 80.1672 83.5121C78.727 84.6522 76.2155 84.6522 74.768 83.5121C74.0443 82.9392 73.6462 82.183 73.6462 81.3753C73.6462 80.5675 74.0443 79.8113 74.7608 79.2384C75.5135 78.654 76.4906 78.3561 77.4676 78.3561ZM77.4676 83.1856C78.0756 83.1856 78.6546 82.9965 79.0816 82.6585C79.5159 82.3148 79.7547 81.8622 79.7547 81.381C79.7547 80.8998 79.5159 80.4415 79.0816 80.1034C78.1914 79.3988 76.7439 79.3988 75.8464 80.1034C75.4122 80.4472 75.1806 80.8998 75.1806 81.381C75.1806 81.8622 75.4194 82.3205 75.8464 82.6585C76.2879 82.9965 76.8597 83.1856 77.4676 83.1856Z" fill="#FCF5ED"/>
<path d="M-402.069 -183.741H96.7563C97.176 -183.741 97.5234 -183.472 97.5234 -183.134V96.6506C97.5234 96.9829 97.1833 97.2578 96.7563 97.2578H-402.069C-402.489 97.2578 -402.837 96.9886 -402.837 96.6506V-183.134C-402.829 -183.472 -402.489 -183.741 -402.069 -183.741ZM95.9891 -182.533H-401.302V96.0433H95.9891V-182.533V-182.533Z" fill="#FCF5ED"/>
</g>
</g>
<defs>
<clipPath id="clip0_3324_1790">
<rect width="97" height="97" fill="white" transform="matrix(-1 0 0 -1 97 97)"/>
</clipPath>
</defs>
</svg>
