<svg preserveAspectRatio="none" width="100%" height="100%" overflow="visible" style="display: block;" viewBox="0 0 13.3611 14.7" fill="none" xmlns="http://www.w3.org/2000/svg">
<g id="Group">
<path id="Vector" d="M12.0326 9.31C12.8053 8.46199 13.4464 7.76435 13.3518 6.84101C13.2576 5.91767 12.6923 4.91853 11.2978 4.91853C9.97166 4.91853 7.81507 6.4216 7.54082 9.29116H6.89157C6.92342 8.78999 6.98299 8.1634 7.09522 7.65119C7.38386 6.16895 8.50229 5.15097 8.50229 3.76917C8.50229 2.38722 8.01229 1.88435 7.4344 1.21857C6.8565 0.552782 6.66188 0 6.66188 0C6.66188 0 6.46711 0.552782 5.88967 1.21857C5.31178 1.88435 4.82147 2.38691 4.82147 3.76917C4.82147 5.15143 5.9399 6.16864 6.22869 7.65135C6.34108 8.1634 6.40065 8.79013 6.43235 9.29116H5.82092C5.54713 6.4216 3.39006 4.91853 2.06399 4.91853C0.668874 4.91853 0.10354 5.91767 0.00921418 6.84147C-0.0849558 7.76481 0.555874 8.46199 1.32838 9.31031C2.1009 10.1583 1.89357 10.7614 0.895044 10.8555C2.00704 11.515 2.91124 10.6859 2.91124 9.72486C2.91124 8.76381 2.08176 8.21699 2.00673 7.68932C1.93139 7.16181 2.2894 6.48331 3.04308 6.57764C4.53406 6.75373 5.09893 8.31484 5.25574 9.29101H4.89053C4.57831 9.29101 4.32488 9.49776 4.32488 9.75256C4.32488 10.0075 4.57831 10.2145 4.89053 10.2145H5.3055C5.26186 11.3547 4.87874 12.0657 4.36256 12.0992C3.77839 12.1369 3.68421 11.5715 4.06105 11.515C3.70304 10.8174 2.81737 11.1194 2.68538 11.7034C2.55017 12.3024 3.0812 12.9475 3.77869 12.9664C4.43835 12.9838 5.66978 12.8149 5.83348 10.2145H6.47078C6.48456 10.3838 6.51856 11.1165 6.17862 12.1369C5.78876 13.3052 5.93362 13.6946 6.66188 14.7C7.39076 13.6946 7.5353 13.3052 7.14575 12.1369C6.80597 11.1165 6.8392 10.3841 6.85283 10.2145H7.52826C7.69211 12.8146 8.92384 12.9838 9.58336 12.9664C10.2806 12.9475 10.8116 12.3024 10.6764 11.7035C10.5444 11.1194 9.65886 10.8179 9.30066 11.5152C9.67766 11.5715 9.58336 12.1369 8.99918 12.0992C8.48315 12.0655 8.09987 11.355 8.0567 10.2145H8.54669C8.85907 10.2145 9.11264 10.0078 9.11264 9.75256C9.11264 9.49726 8.85922 9.29101 8.54669 9.29101H8.10616C8.2628 8.31453 8.82814 6.75342 10.3189 6.57764C11.0724 6.48331 11.4305 7.16181 11.355 7.68932C11.2797 8.21668 10.4505 8.7635 10.4505 9.72486C10.4505 10.6863 11.355 11.5155 12.4669 10.8555C11.4682 10.7609 11.26 10.158 12.0326 9.31Z" fill="var(--fill-0, white)"/>
</g>
</svg>
